<mxfile host="app.diagrams.net" agent="Mozilla/5.0 (Windows NT 10.0; Win64; x64) AppleWebKit/537.36 (KHTML, like Gecko) Chrome/134.0.0.0 Safari/537.36 OPR/119.0.0.0" version="28.0.4">
  <diagram name="Page-1" id="RvjD1vPrPkiuDMNnHZ7p">
    <mxGraphModel dx="897" dy="427" grid="1" gridSize="10" guides="1" tooltips="1" connect="1" arrows="1" fold="1" page="1" pageScale="1" pageWidth="3300" pageHeight="4681" math="0" shadow="0">
      <root>
        <mxCell id="0" />
        <mxCell id="1" parent="0" />
        <mxCell id="C8dAT6l6J8RbHiTnzHgZ-9" style="edgeStyle=orthogonalEdgeStyle;rounded=0;orthogonalLoop=1;jettySize=auto;html=1;" edge="1" parent="1" source="C8dAT6l6J8RbHiTnzHgZ-1" target="C8dAT6l6J8RbHiTnzHgZ-4">
          <mxGeometry relative="1" as="geometry" />
        </mxCell>
        <mxCell id="C8dAT6l6J8RbHiTnzHgZ-11" style="edgeStyle=orthogonalEdgeStyle;rounded=0;orthogonalLoop=1;jettySize=auto;html=1;entryX=0.5;entryY=0;entryDx=0;entryDy=0;" edge="1" parent="1" source="C8dAT6l6J8RbHiTnzHgZ-1" target="C8dAT6l6J8RbHiTnzHgZ-8">
          <mxGeometry relative="1" as="geometry" />
        </mxCell>
        <mxCell id="C8dAT6l6J8RbHiTnzHgZ-12" style="edgeStyle=orthogonalEdgeStyle;rounded=0;orthogonalLoop=1;jettySize=auto;html=1;" edge="1" parent="1" source="C8dAT6l6J8RbHiTnzHgZ-1" target="C8dAT6l6J8RbHiTnzHgZ-6">
          <mxGeometry relative="1" as="geometry" />
        </mxCell>
        <mxCell id="C8dAT6l6J8RbHiTnzHgZ-13" style="edgeStyle=orthogonalEdgeStyle;rounded=0;orthogonalLoop=1;jettySize=auto;html=1;entryX=0.5;entryY=0;entryDx=0;entryDy=0;" edge="1" parent="1" source="C8dAT6l6J8RbHiTnzHgZ-1" target="C8dAT6l6J8RbHiTnzHgZ-7">
          <mxGeometry relative="1" as="geometry" />
        </mxCell>
        <mxCell id="C8dAT6l6J8RbHiTnzHgZ-16" style="edgeStyle=orthogonalEdgeStyle;rounded=0;orthogonalLoop=1;jettySize=auto;html=1;" edge="1" parent="1" source="C8dAT6l6J8RbHiTnzHgZ-1" target="C8dAT6l6J8RbHiTnzHgZ-3">
          <mxGeometry relative="1" as="geometry" />
        </mxCell>
        <mxCell id="C8dAT6l6J8RbHiTnzHgZ-1" value="Trang chủ" style="rounded=0;whiteSpace=wrap;html=1;fillColor=#3399FF;" vertex="1" parent="1">
          <mxGeometry x="870" y="420" width="120" height="60" as="geometry" />
        </mxCell>
        <mxCell id="C8dAT6l6J8RbHiTnzHgZ-2" value="Liên hệ" style="rounded=0;whiteSpace=wrap;html=1;fillColor=#3399FF;" vertex="1" parent="1">
          <mxGeometry x="780" y="280" width="120" height="60" as="geometry" />
        </mxCell>
        <mxCell id="C8dAT6l6J8RbHiTnzHgZ-3" value="Về chúng tôi" style="rounded=0;whiteSpace=wrap;html=1;fillColor=#3399FF;" vertex="1" parent="1">
          <mxGeometry x="970" y="280" width="120" height="60" as="geometry" />
        </mxCell>
        <mxCell id="C8dAT6l6J8RbHiTnzHgZ-10" style="edgeStyle=orthogonalEdgeStyle;rounded=0;orthogonalLoop=1;jettySize=auto;html=1;" edge="1" parent="1" source="C8dAT6l6J8RbHiTnzHgZ-4" target="C8dAT6l6J8RbHiTnzHgZ-5">
          <mxGeometry relative="1" as="geometry" />
        </mxCell>
        <mxCell id="C8dAT6l6J8RbHiTnzHgZ-4" value="Đăng nhập" style="rounded=0;whiteSpace=wrap;html=1;fillColor=#3399FF;" vertex="1" parent="1">
          <mxGeometry x="1120" y="420" width="120" height="60" as="geometry" />
        </mxCell>
        <mxCell id="C8dAT6l6J8RbHiTnzHgZ-5" value="Đăng ký" style="rounded=0;whiteSpace=wrap;html=1;fillColor=#3399FF;" vertex="1" parent="1">
          <mxGeometry x="1150" y="560" width="120" height="60" as="geometry" />
        </mxCell>
        <mxCell id="C8dAT6l6J8RbHiTnzHgZ-6" value="Chi tiết sản phẩm" style="rounded=0;whiteSpace=wrap;html=1;fillColor=#3399FF;" vertex="1" parent="1">
          <mxGeometry x="660" y="400" width="120" height="60" as="geometry" />
        </mxCell>
        <mxCell id="C8dAT6l6J8RbHiTnzHgZ-7" value="Giỏ hàng" style="rounded=0;whiteSpace=wrap;html=1;fillColor=#3399FF;" vertex="1" parent="1">
          <mxGeometry x="760" y="580" width="120" height="60" as="geometry" />
        </mxCell>
        <mxCell id="C8dAT6l6J8RbHiTnzHgZ-8" value="404 error" style="rounded=0;whiteSpace=wrap;html=1;fillColor=#3399FF;" vertex="1" parent="1">
          <mxGeometry x="950" y="580" width="120" height="60" as="geometry" />
        </mxCell>
        <mxCell id="C8dAT6l6J8RbHiTnzHgZ-15" style="edgeStyle=orthogonalEdgeStyle;rounded=0;orthogonalLoop=1;jettySize=auto;html=1;entryX=0.528;entryY=1.024;entryDx=0;entryDy=0;entryPerimeter=0;" edge="1" parent="1" source="C8dAT6l6J8RbHiTnzHgZ-1" target="C8dAT6l6J8RbHiTnzHgZ-2">
          <mxGeometry relative="1" as="geometry" />
        </mxCell>
        <mxCell id="C8dAT6l6J8RbHiTnzHgZ-17" style="edgeStyle=orthogonalEdgeStyle;rounded=0;orthogonalLoop=1;jettySize=auto;html=1;entryX=-0.008;entryY=0.563;entryDx=0;entryDy=0;entryPerimeter=0;" edge="1" parent="1" source="C8dAT6l6J8RbHiTnzHgZ-6" target="C8dAT6l6J8RbHiTnzHgZ-7">
          <mxGeometry relative="1" as="geometry" />
        </mxCell>
      </root>
    </mxGraphModel>
  </diagram>
</mxfile>
